<svg id="Logo" xmlns="http://www.w3.org/2000/svg" width="124.232" height="130" viewBox="0 0 124.232 130">
  <path id="Path_1" data-name="Path 1" d="M103.626,527.286a7.313,7.313,0,0,0,5.357-1.986l-1.619-1.359a4.991,4.991,0,0,1-3.6,1.41c-2.794,0-4.818-1.733-4.818-4.18s2.024-4.18,4.818-4.18a5.046,5.046,0,0,1,3.6,1.393l1.619-1.342a7.3,7.3,0,0,0-5.338-1.986c-4.143,0-7.224,2.563-7.224,6.115S99.5,527.286,103.626,527.286Z" transform="translate(-81.421 -420.565)" fill="#0a2048"/>
  <path id="Path_2" data-name="Path 2" d="M178.711,532.962a7.946,7.946,0,0,0-4.354,1.12l.943,1.546a5.551,5.551,0,0,1,3.122-.9c1.716,0,2.564.731,2.564,1.973v.136h-2.661c-3.122,0-4.277,1.187-4.277,2.7,0,1.58,1.482,2.717,3.833,2.717a3.87,3.87,0,0,0,3.239-1.222v1.1h2.272v-5.315C183.393,534.2,181.68,532.962,178.711,532.962Zm-.328,7.747c-1.234,0-1.967-.493-1.967-1.258,0-.663.444-1.207,2.082-1.207h2.487V539.3A2.672,2.672,0,0,1,178.384,540.709Z" transform="translate(-144.847 -435.583)" fill="#0a2048"/>
  <rect id="Rectangle_2" data-name="Rectangle 2" width="2.406" height="12.603" transform="translate(41.921 93.947)" fill="#0a2048"/>
  <path id="Path_3" data-name="Path 3" d="M288.576,532.962a5.1,5.1,0,0,0-3.855,1.51,4.037,4.037,0,0,0-3.468-1.51,4.553,4.553,0,0,0-3.374,1.256v-1.154h-2.291v9.07h2.406v-4.6a2.47,2.47,0,0,1,2.68-2.719,2.106,2.106,0,0,1,2.314,2.4v4.927h2.406v-4.6a2.479,2.479,0,0,1,2.68-2.718,2.106,2.106,0,0,1,2.314,2.4v4.927h2.406v-5.2C292.794,534.2,291.062,532.962,288.576,532.962Z" transform="translate(-227.808 -435.583)" fill="#0a2048"/>
  <path id="Path_4" data-name="Path 4" d="M394.493,537.65c0-2.838-2.195-4.688-5.2-4.688-3.064,0-5.319,1.935-5.319,4.637s2.235,4.654,5.685,4.654a5.579,5.579,0,0,0,4.142-1.476l-1.29-1.309a3.954,3.954,0,0,1-2.794.986c-1.792,0-3.045-.85-3.334-2.177h8.072C394.473,538.074,394.493,537.819,394.493,537.65Zm-5.2-2.991a2.711,2.711,0,0,1,2.91,2.211h-5.839A2.757,2.757,0,0,1,389.292,534.659Z" transform="translate(-316.364 -435.583)" fill="#0a2048"/>
  <path id="Path_5" data-name="Path 5" d="M459.586,511.685v4.654a4.509,4.509,0,0,0-3.316-1.222c-2.988,0-5.2,1.816-5.2,4.637s2.214,4.654,5.2,4.654a4.525,4.525,0,0,0,3.412-1.289v1.171h2.31v-12.6Zm-3.027,10.907a2.847,2.847,0,1,1,3.065-2.838A2.833,2.833,0,0,1,456.559,522.592Z" transform="translate(-371.183 -417.738)" fill="#0a2048"/>
  <path id="Path_6" data-name="Path 6" d="M529.395,511.072a1.4,1.4,0,0,0,1.54-1.324c0-.7-.655-1.222-1.54-1.222a1.3,1.3,0,1,0,0,2.546Zm-1.213,10.567h2.407v-9.07h-2.407Z" transform="translate(-433.921 -415.089)" fill="#0a2048"/>
  <path id="Path_7" data-name="Path 7" d="M562.6,542.253a4.838,4.838,0,0,0,4.394-2.122l-1.85-.952a3.02,3.02,0,0,1-2.563,1.258,2.851,2.851,0,1,1,0-5.676,3.02,3.02,0,0,1,2.563,1.257l1.85-.951a4.792,4.792,0,0,0-4.394-2.1c-3.256,0-5.567,1.918-5.567,4.637S559.342,542.253,562.6,542.253Z" transform="translate(-457.76 -435.583)" fill="#0a2048"/>
  <path id="Path_8" data-name="Path 8" d="M203.359,133.1H180.221a3.057,3.057,0,0,0-2.084.791l-8.7,8.108L159.421,121.97a2.88,2.88,0,0,0-2.431-1.5,3.009,3.009,0,0,0-2.638,1.2L146.395,133.1H128.017a2.549,2.549,0,1,0,0,5.057H148a2.969,2.969,0,0,0,2.445-1.207l5.936-8.53,9.552,19.1A2.834,2.834,0,0,0,168.068,149a3.291,3.291,0,0,0,.489.037,3.063,3.063,0,0,0,2.084-.791l10.816-10.083h21.9a2.549,2.549,0,1,0,0-5.057Z" transform="translate(-104.893 -89.615)" fill="#eb3b3b"/>
  <path id="Path_9" data-name="Path 9" d="M209.3,28.861a24,24,0,0,0-15.995-5.834,29.838,29.838,0,0,0-17.639,5.816c-5.743-4.458-10.937-6.632-15.829-6.632a26.126,26.126,0,0,0-17.8,6.641,21.905,21.905,0,0,0-6.9,11.66,2.56,2.56,0,0,0,2.251,2.975,2.88,2.88,0,0,0,3.375-1.984,17.062,17.062,0,0,1,5.378-9.114,20.085,20.085,0,0,1,13.7-5.121c3.8,0,8.413,2.26,13.649,6.672a3.27,3.27,0,0,0,2.172.808h0a3.275,3.275,0,0,0,2.171-.8,23.615,23.615,0,0,1,15.4-5.861h.053a17.639,17.639,0,0,1,11.9,4.3,16.536,16.536,0,0,1,.078,24.922L175.711,82.5,152.272,62.537a3.151,3.151,0,0,0-4.056.061,2.323,2.323,0,0,0,.07,3.575l25.433,21.662a3.152,3.152,0,0,0,3.986,0L209.314,60.9a21.7,21.7,0,0,0,7.319-16.013A21.7,21.7,0,0,0,209.3,28.861Z" transform="translate(-113.004 -7.211)" fill="#437ce3"/>
</svg>
