<svg id="SmallLogo" xmlns="http://www.w3.org/2000/svg" width="83.373" height="66.335" viewBox="0 0 83.373 66.335">
  <path id="Path_15" data-name="Path 15" d="M203.359,133.1H180.221a3.057,3.057,0,0,0-2.084.791l-8.7,8.108L159.421,121.97a2.88,2.88,0,0,0-2.431-1.5,3.009,3.009,0,0,0-2.638,1.2L146.395,133.1H128.017a2.549,2.549,0,1,0,0,5.057H148a2.969,2.969,0,0,0,2.445-1.207l5.936-8.53,9.552,19.1A2.834,2.834,0,0,0,168.068,149a3.291,3.291,0,0,0,.489.037,3.063,3.063,0,0,0,2.084-.791l10.816-10.083h21.9a2.549,2.549,0,1,0,0-5.057Z" transform="translate(-125.149 -104.615)" fill="#eb3b3b"/>
  <path id="Path_16" data-name="Path 16" d="M209.3,28.861a24,24,0,0,0-15.995-5.834,29.838,29.838,0,0,0-17.639,5.816c-5.743-4.458-10.937-6.632-15.829-6.632a26.126,26.126,0,0,0-17.8,6.641,21.905,21.905,0,0,0-6.9,11.66,2.56,2.56,0,0,0,2.251,2.975,2.88,2.88,0,0,0,3.375-1.984,17.062,17.062,0,0,1,5.378-9.114,20.085,20.085,0,0,1,13.7-5.121c3.8,0,8.413,2.26,13.649,6.672a3.27,3.27,0,0,0,2.172.808h0a3.275,3.275,0,0,0,2.171-.8,23.615,23.615,0,0,1,15.4-5.861h.053a17.639,17.639,0,0,1,11.9,4.3,16.536,16.536,0,0,1,.078,24.922L175.711,82.5,152.272,62.537a3.151,3.151,0,0,0-4.056.061,2.323,2.323,0,0,0,.07,3.575l25.433,21.662a3.152,3.152,0,0,0,3.986,0L209.314,60.9a21.7,21.7,0,0,0,7.319-16.013A21.7,21.7,0,0,0,209.3,28.861Z" transform="translate(-133.26 -22.211)" fill="#437ce3"/>
</svg>
